<?xml version="1.0" encoding="UTF-8"?><svg id="graphics" xmlns="http://www.w3.org/2000/svg" viewBox="0 0 1512 1152"><defs><style>.cls-1{stroke:#f4f5f7;}.cls-1,.cls-2,.cls-3,.cls-4,.cls-5,.cls-6,.cls-7,.cls-8,.cls-9,.cls-10,.cls-11,.cls-12,.cls-13,.cls-14,.cls-15,.cls-16,.cls-17,.cls-18,.cls-19{fill:none;stroke-miterlimit:10;stroke-width:.75px;}.cls-2{stroke:#f1f2f4;}.cls-3{stroke:#d5d9df;}.cls-4{stroke:#e3e6ea;}.cls-5{stroke:#f7f7f9;}.cls-6{stroke:#d4d8de;}.cls-7{stroke:#d3d7dd;}.cls-8{stroke:#f8f9fa;}.cls-9{stroke:#cdd2d9;}.cls-10{stroke:#fff;}.cls-11{stroke:#dbdfe4;}.cls-12{stroke:#e9ebee;}.cls-13{stroke:#e2e5e9;}.cls-14{stroke:#d8dce1;}.cls-15{stroke:#eaecef;}.cls-16{stroke:#eef0f2;}.cls-17{stroke:#f9fafb;}.cls-18{stroke:#dee1e6;}.cls-19{stroke:#e6e8ec;}</style></defs><path class="cls-9" d="M695.29,294.94c2.3,2.87-1.23,6.38,1.09,10.08,1.71,2.73,4.24,1.97,7.63,4.72,3.65,2.96,4.75,7.12,5.72,10.81,1.4,5.31,3.18,12.09-.82,17.44-5.12,6.85-13.86,6.15-15.53,5.99-7.19-.67-15.17-5.49-15.8-11.17-.39-3.49,2.31-4.42,1.97-8.86-.33-4.32-2.99-4.76-4.69-10.21-.59-1.88-2.12-6.8,0-11.99.41-1,2.61-6.06,8.17-8.17,3.77-1.43,9.75-1.78,12.26,1.36Z"/><path class="cls-6" d="M699.73,270.04c2.77.74,3.85,1.35,6.06,3.22,1.32,1.12,2.81,2.7,4.48,5.25.79,1.2,1.13,2.3,1.58,3.49.4,1.06.83,2.06,1.63,3.14,2.77,3.75,9.47,3.64,12.56,8.36,1.3,1.99.81,3.15.76,9.02,0,1.2.17,2.26.47,3.52.49,2.1,1.41,2.92,1.71,4.75.32,1.98-.31,2.9-.28,4.99.02,1.79.52,3.5,1.46,5.82,2.55,6.24,5.07,9.85,7.53,16.38,1.31,3.45,1.95,6.13,1.75,9.37-.25,4.07-2.11,7.43-3.49,9.39-7.51,10.74-23.59,14.08-32.66,12.02-12.46-2.83-18.97-12.66-28.66-15.24-3.87-1.03-5.62-.85-7.91-3.09-3.55-3.48-1.34-7.53-5.5-16.41-.27-.58-.57-1.2-.87-1.85-1.48-3.22-3.48-6.01-6.18-9.05-3.48-3.91-6.97-7.17-7.7-12.79-.73-5.6,2.33-10.19,5.19-19.32.36-1.13.71-2.23.96-3.32,1.57-6.74-.7-14.03,5.84-20.26,5.8-5.53,20.95-7.95,30.42-2.84,3.32,1.79,6.66,4.32,10.84,5.43Z"/><path class="cls-11" d="M704.45,245.18c4.34.49,6.53.18,11.5,2.16,2.65,1.06,6.2,2.7,9.2,6.42,1.48,1.83,1.93,3.46,2.47,5.27.47,1.57.95,3.16,2.12,4.99,3.94,6.19,15.15,6.03,18.63,13.29,1.45,3.04-.09,4.29-1.27,14.91-.22,1.96-.2,3.65.18,5.72.65,3.58,2.22,4.57,2.57,7.59.38,3.27-1.06,4.42-1.25,7.92-.15,2.77.57,5.41,2.27,9.26,4.37,9.89,8.68,14.14,13.45,24.25,2.54,5.36,3.95,9.16,3.89,14.12-.08,6.64-3.2,11.91-4.95,14.47-9.89,14.62-33.34,22.16-49.79,18.05-19.77-4.95-27.15-22.12-43.56-23.75-6.62-.66-9.19,1.06-13.79-1.74-6.42-3.91-4.42-10.85-12.99-24.88-.54-.88-1.11-1.8-1.7-2.77-2.7-4.45-6.14-8.8-10.7-13.66-6.02-6.41-11.67-11.47-12.38-19.8-.81-9.54,6.48-14.58,10.94-28.28.56-1.72,1.04-3.38,1.37-5,2.51-12.53-4.44-22.65,3.51-32.35,8.61-10.5,35.52-14.47,51.56-5.12,5.46,3.18,10.92,8.05,18.71,8.94Z"/><path class="cls-13" d="M709.18,220.34c5.94.28,9.24-.9,16.94,1.09,4.02,1.04,9.6,2.69,13.91,7.58,2.16,2.45,2.73,4.62,3.35,7.06.53,2.08,1.07,4.25,2.61,6.84,5.11,8.63,20.86,8.42,24.69,18.21,1.61,4.08-.93,5.45-3.29,20.8-.42,2.72-.57,5.04-.11,7.92.8,5.06,3.03,6.22,3.44,10.43.44,4.56-1.8,5.95-2.22,10.85-.32,3.76.62,7.31,3.08,12.7,6.18,13.55,12.29,18.44,19.36,32.11,3.77,7.26,5.97,12.19,6.04,18.88.09,9.21-4.29,16.39-6.41,19.56-12.27,18.51-43.11,30.27-66.92,24.07-27.09-7.05-35.33-31.57-58.46-32.27-9.37-.28-12.76,2.9-19.66-.38-9.3-4.43-7.48-14.2-20.48-33.35-.8-1.18-1.66-2.41-2.54-3.69-3.91-5.7-8.81-11.59-15.22-18.27-8.58-8.9-16.35-15.78-17.05-26.81-.85-13.49,10.62-18.97,16.69-37.24.77-2.31,1.38-4.53,1.78-6.69,3.4-18.32-8.31-31.31,1.18-44.44,11.24-15.56,50.11-21.05,72.7-7.39,7.61,4.56,15.21,11.91,26.58,12.44Z"/><path class="cls-15" d="M713.9,195.49c7.54.45,11.97-1.96,22.38.03,5.41,1.03,13,2.68,18.63,8.75,2.86,3.07,3.53,5.78,4.23,8.84.6,2.59,1.2,5.35,3.1,8.7,6.29,11.07,26.55,10.81,30.76,23.13,1.76,5.13-1.75,6.62-5.31,26.69-.62,3.49-.94,6.43-.4,10.12.95,6.53,3.84,7.87,4.3,13.27.5,5.85-2.54,7.47-3.19,13.78-.49,4.75.67,9.22,3.89,16.14,7.97,17.22,15.9,22.74,25.28,39.98,5,9.17,7.98,15.21,8.18,23.64.28,11.78-5.39,20.86-7.86,24.64-14.65,22.39-52.88,38.39-84.05,30.1-34.4-9.15-43.51-40.97-73.36-40.79-12.12.11-16.33,4.72-25.53.97-12.2-4.97-10.52-17.57-27.98-41.83-1.07-1.49-2.2-3.02-3.38-4.62-5.12-6.95-11.48-14.39-19.74-22.88-11.12-11.4-21.03-20.09-21.72-33.82-.88-17.43,14.76-23.37,22.44-46.2.98-2.9,1.71-5.69,2.18-8.37,4.27-24.12-12.22-39.96-1.15-56.53,13.79-20.64,64.67-27.57,93.84-9.67,9.75,5.95,19.54,15.06,34.45,15.94Z"/><path class="cls-2" d="M718.62,170.62c9.17-.13,14.71-3.02,27.82-1.03,6.8,1.03,16.39,2.67,23.34,9.91,3.55,3.7,4.33,6.94,5.12,10.62.67,3.09,1.32,6.44,3.59,10.55,7.48,13.5,32.24,13.2,36.83,28.06,1.92,6.17-2.57,7.8-7.33,32.58-.82,4.26-1.31,7.81-.69,12.31,1.09,8.01,4.65,9.53,5.17,16.11.56,7.14-3.27,9-4.16,16.71-.66,5.73.72,11.13,4.7,19.58,9.79,20.88,19.51,27.03,31.2,47.84,6.23,11.08,10.02,18.24,10.32,28.39.48,14.35-6.48,25.34-9.32,29.72-17.03,26.28-62.67,46.59-101.18,36.12-41.74-11.17-51.68-50.43-88.27-49.31-14.86.48-19.9,6.53-31.4,2.33-15.1-5.52-13.57-20.94-35.47-50.3-1.33-1.79-2.74-3.63-4.21-5.54-6.33-8.2-14.14-17.19-24.25-27.5-13.66-13.9-25.7-24.39-26.4-40.83-.91-21.37,18.91-27.76,28.19-55.16,1.18-3.49,2.04-6.84,2.59-10.06,5.12-29.92-16.15-48.6-3.48-68.61,16.3-25.74,79.24-34.09,114.98-11.94,11.88,7.34,23.83,19.7,42.31,19.45Z"/><path class="cls-8" d="M723.39,145.8c10.79-.33,17.46-4.07,33.26-2.1,8.2,1.02,19.8,2.65,28.06,11.08,4.24,4.31,5.13,8.1,6,12.4.73,3.6,1.44,7.53,4.08,12.4,8.65,15.94,37.93,15.59,42.9,32.98,2.07,7.22-3.38,8.98-9.36,38.47-1.02,5.03-1.68,9.2-.98,14.51,1.24,9.49,5.46,11.18,6.04,18.95.62,8.43-4,10.52-5.13,19.64-.82,6.72.77,13.03,5.51,23.02,11.61,24.54,23.12,31.33,37.12,55.71,7.46,12.98,12.03,21.27,12.47,33.15.65,16.92-7.57,29.82-10.78,34.8-19.41,30.16-72.43,54.68-118.31,42.15-49.05-13.3-59.86-59.89-103.17-57.82-17.61.85-23.48,8.34-37.27,3.68-18.01-6.08-16.57-24.34-42.96-58.77-1.6-2.09-3.28-4.24-5.05-6.47-7.54-9.46-16.8-19.99-28.77-32.11-16.2-16.4-30.33-28.7-31.07-47.84-.89-25.32,23.05-32.16,33.94-64.13,1.39-4.08,2.37-7.99,3-11.75,5.96-35.72-20.1-57.24-5.81-80.7,18.78-30.85,93.8-40.61,136.12-14.22,14.02,8.73,28.15,23.62,50.18,22.95Z"/><path class="cls-10" d="M728.07,120.94c-25.57,1.08-41.89-16.33-58.05-26.46-48.9-30.64-136.02-19.46-157.26,16.49-17.55,29.69,21.82,56.28,4.74,106.22-12.5,36.54-40.64,43.83-39.69,73.09.71,21.85,17,35.96,35.74,54.85,17.1,17.23,29.45,31.62,39.18,44.11,30.8,39.56,29.53,60.6,50.46,67.24,16.08,5.11,22.78-3.82,43.14-5.04,50.04-3.01,61.71,50.9,118.07,66.34,53.25,14.59,113.65-14.13,135.44-48.18,3.57-5.58,13.07-20.4,12.24-39.88-.58-13.61-5.92-23.02-14.61-37.91-16.32-27.95-29.61-35.38-43.04-63.58-5.49-11.52-7.31-18.75-6.32-26.46,1.35-10.52,6.78-12.84,6.1-22.57-.63-8.97-5.5-10.83-6.9-21.8-.78-6.12.05-10.91,1.27-16.71,7.19-34.2,13.6-36.09,11.38-44.36-5.35-19.92-39.14-19.52-48.97-37.91-6.6-12.35-2.4-19.37-11.45-28.43-9.59-9.6-23.18-11.22-32.78-12.24-18.48-1.97-26.28,2.63-38.7,3.16Z"/><path class="cls-9" d="M1029.56,129.12c5.15,1.98,7.42,6.95,11.95,16.87,4.76,10.42,7.14,15.63,5.27,21.79-1.8,5.93-7.16,11.98-14.76,13.36-8.38,1.52-18.05-2.91-19.52-8.94-1.98-8.16,12.2-14.53,10.02-22.7-1.92-7.21-14.28-7.18-14.41-11.95-.13-4.83,12.34-11.94,21.44-8.44Z"/><path class="cls-7" d="M1027.59,119.1c6.66.68,9.63-2.3,14.14.66,3.11,2.04,3.53,6.23,7.49,10.56,3.86,4.23,7.12,4.72,11.28,8.69,7,6.68,11.83,17.79,10.52,25.87-1.23,7.65-6.97,12.39-12.2,15.27-3.88,2.14-6.85,3.32-11.28,6.46-2.39,1.69-3.61,3.42-6.19,5.35-.68.51-2.23,1.73-4.14,2.89-2.63,1.59-5.28,2.29-7.37,2.77-6.81,1.59-9.81,3.89-15.12,3.52-8.88-.62-17.75-8.47-18.21-14.87-.14-1.95.42-3.57.69-5.9.34-2.94.24-4.63.93-7.18,1.2-4.43,5.65-7.44,7.08-11.58,1.4-4.05.25-6.86-2.22-10.69-1.49-2.31-3.39-4.48-5.33-6.76-5.07-5.96-10.35-11.16-7.86-15.71,1.25-2.29,3.3-3.04,7.08-5.56,3.49-2.33,4.88-4.55,8.15-6.01,6.79-3.04,13.85,1.34,22.57,2.23Z"/><path class="cls-14" d="M1025.35,109.11c10.92.28,15.13-7.21,22.4-3.67,5.27,2.57,5.12,9.23,11.98,15.81,6.81,6.54,12.24,5.42,19.5,10.81,11.67,8.67,19.99,27.1,16.17,40.06-3.41,11.55-15.26,18.06-24.79,20.42-6.91,1.71-11.43,1.37-18.21,5.4-3.73,2.22-4.97,4.65-8.82,7.64-.59.46-2.82,2.45-5.75,4.35-3.93,2.55-7.78,3.52-10.42,4.18-10.62,2.69-13.45,7.43-21.2,7.49-12.55.11-26-12.33-25.96-21.26.01-2.61,1.06-4.61,1.25-8.08.23-4.38-.87-6.32-.5-9.96.67-6.61,7.54-10.3,8.75-16.32,1.13-5.61-2.25-8.74-6.54-13.65-2.43-2.78-5.11-5.7-7.48-9.18-5.89-8.69-9.34-18.2-4.51-23.81,2.66-3.08,5.53-2.9,11.23-6.44,5.63-3.51,6.61-6.9,11.18-9.01,9.46-4.37,18.62,4.87,31.74,5.21Z"/><path class="cls-18" d="M1023.43,99.12c15.17-.54,20.63-12.15,30.65-7.99,7.43,3.08,6.72,12.22,16.47,21.05s17.34,6.14,27.71,12.93c16.34,10.7,28.21,36.43,21.81,54.25-5.56,15.49-23.56,23.76-37.38,25.57-9.95,1.3-16.01-.6-25.15,4.35-5.09,2.76-6.32,5.89-11.45,9.94-.5.4-3.41,3.16-7.36,5.82-5.24,3.5-10.28,4.75-13.48,5.6-14.42,3.82-17.1,10.95-27.28,11.47-16.22.81-34.28-16.18-33.7-27.64.17-3.28,1.7-5.66,1.8-10.25.12-5.81-1.99-8.01-1.93-12.75.11-8.78,9.44-13.17,10.41-21.06.88-7.16-4.73-10.64-10.86-16.6-3.35-3.26-6.85-6.91-9.62-11.59-6.74-11.4-8.3-25.19-1.16-31.92,4.08-3.85,7.77-2.75,15.38-7.33,7.77-4.67,8.35-9.26,14.2-12.01,12.14-5.71,23.39,8.81,40.92,8.19Z"/><path class="cls-4" d="M1021.73,89.37c19.43-.6,26.13-17.09,38.9-12.32,9.6,3.58,8.33,15.19,20.97,26.3,12.74,11.13,22.45,6.88,35.93,15.06,20.99,12.74,36.43,45.78,27.46,68.44-7.7,19.43-31.87,29.46-49.98,30.72-12.99.9-20.6-2.56-32.08,3.3-6.44,3.29-7.68,7.12-14.08,12.23-.42.33-4,3.88-8.97,7.29-6.54,4.46-12.77,5.98-16.53,7.01-18.21,4.96-20.75,14.47-33.36,15.44-19.89,1.52-42.56-20.04-41.44-34.02.31-3.94,2.35-6.71,2.36-12.43.01-7.25-3.12-9.7-3.37-15.54-.45-10.94,11.36-16.04,12.08-25.8.64-8.71-7.2-12.56-15.18-19.56-4.27-3.75-8.58-8.11-11.76-14.01-7.6-14.11-7.26-32.15,2.19-40.03,5.51-4.59,10-2.61,19.53-8.21,9.91-5.83,10.09-11.61,17.23-15.01,14.82-7.05,28.13,11.85,50.09,11.17Z"/><path class="cls-12" d="M1020.16,79.96c23.68-1.06,31.63-22.04,47.15-16.65,11.76,4.08,9.93,18.19,25.46,31.54,15.69,13.43,27.55,7.62,44.14,17.18,25.65,14.78,44.66,55.14,33.1,82.63-9.83,23.38-40.18,35.17-62.57,35.87-16.04.5-25.2-4.56-39.01,2.24-7.8,3.8-9.04,8.35-16.71,14.52-.33.27-4.59,4.6-10.57,8.75-7.83,5.43-15.27,7.22-19.59,8.42-22,6.11-24.4,17.99-39.44,19.41-23.57,2.22-50.84-23.9-49.19-40.41.46-4.61,2.99-7.75,2.91-14.6-.1-8.69-4.26-11.39-4.8-18.33-1.02-13.1,13.28-18.91,13.74-30.54.41-10.27-9.67-14.49-19.5-22.51-5.2-4.24-10.32-9.32-13.9-16.42-8.46-16.82-6.22-39.1,5.54-48.13,6.94-5.33,12.24-2.46,23.68-9.1,12.05-7,11.83-13.97,20.26-18.01,17.5-8.38,32.88,15.33,59.26,14.15Z"/><path class="cls-16" d="M1018.66,70.56c27.93-1.52,37.12-26.99,55.4-20.98,13.93,4.58,11.52,21.18,29.96,36.78,18.65,15.74,32.66,8.36,52.36,19.3,30.31,16.83,52.89,64.5,38.75,96.82-11.97,27.34-48.5,40.88-75.16,41.02-19.08.1-29.78-6.52-45.94,1.19-9.15,4.34-10.4,9.59-19.34,16.81-.25.2-5.18,5.32-12.18,10.22-9.13,6.39-17.77,8.46-22.64,9.83-25.79,7.27-28.05,21.48-45.52,23.38-27.25,2.87-59.13-27.76-56.93-46.79.61-5.27,3.63-8.8,3.47-16.78-.21-10.13-5.39-13.07-6.23-21.12-1.6-15.26,15.21-21.78,15.41-35.27.17-11.83-12.14-16.43-23.82-25.47-6.12-4.74-12.07-10.53-16.04-18.84-9.33-19.53-5.18-46.04,8.9-56.24,8.36-6.06,14.49-2.29,27.83-9.98,14.21-8.14,13.57-16.33,23.29-21.01,20.18-9.72,37.63,18.8,68.44,17.12Z"/><path class="cls-1" d="M1017.2,61.16c32.18-1.98,42.62-31.94,63.66-25.3,16.09,5.08,13.12,24.17,34.45,42.03,21.6,18.05,37.74,9.15,60.57,21.42,34.94,18.95,61.13,73.86,44.39,111.01-14.1,31.29-56.81,46.63-87.75,46.17-22.13-.28-34.37-8.48-52.87.13-10.5,4.87-11.75,10.82-21.97,19.1-.17.13-5.77,6.03-13.79,11.69-10.43,7.35-20.26,9.69-25.7,11.24-29.58,8.43-31.7,25.01-51.6,27.35-30.92,3.58-67.46-31.62-64.67-53.18.75-5.94,4.27-9.85,4.02-18.95-.32-11.56-6.52-14.76-7.66-23.91-2.17-17.42,17.14-24.65,17.07-40.01-.06-13.38-14.6-18.37-28.13-28.42-7.04-5.23-13.81-11.73-18.18-21.25-10.21-22.25-4.15-52.97,12.25-64.34,9.79-6.79,16.72-2.15,31.98-10.87,16.35-9.3,15.31-18.68,26.32-24.01,22.86-11.06,42.38,22.28,77.61,20.1Z"/><path class="cls-17" d="M1015.77,51.76c36.42-2.49,48.13-36.92,71.91-29.63,18.26,5.56,14.71,27.17,38.94,47.27,24.55,20.35,42.85,9.87,68.79,23.54,39.62,20.97,69.41,83.25,50.03,125.2-16.2,35.27-65.13,52.32-100.34,51.32-25.18-.69-38.95-10.45-59.8-.92-11.85,5.4-13.11,12.05-24.59,21.39-.08.07-6.36,6.75-15.4,13.15-11.73,8.31-22.75,10.93-28.75,12.65-33.36,9.62-35.35,28.53-57.68,31.32-34.6,4.29-75.73-35.48-72.42-59.56.9-6.6,4.91-10.89,4.58-21.12-.43-13-7.67-16.44-9.1-26.7-2.77-19.58,19.09-27.52,18.74-44.75-.27-14.94-17.05-20.33-32.45-31.38-7.95-5.74-15.57-12.93-20.32-23.67-11.11-24.94-3.11-59.91,15.6-72.45,11.22-7.52,18.96-2.01,36.13-11.75,18.49-10.47,17.04-21.04,29.35-27.01,25.53-12.39,47.12,25.71,86.78,23.08Z"/><path class="cls-10" d="M1014.36,42.36c-44.08,3.16-67.74-39.79-95.96-26.06-13.6,6.62-11.75,18.37-32.38,30.01-19.09,10.77-27.63,4.39-40.28,12.64-21.03,13.72-30.91,52.89-18.95,80.56,15.17,35.1,58.45,35.41,59.23,60.42.6,19.1-23.73,27.75-20.4,49.49,1.74,11.36,9.99,15.05,10.53,29.48.42,11.36-4.08,16.03-5.13,23.3-3.85,26.61,41.89,70.95,80.16,65.94,24.76-3.24,26.6-24.54,63.75-35.3,6.56-1.9,18.78-4.79,31.81-14.06,10.05-7.15,17-14.62,17-14.62,11.71-11.56,14.02-17.75,27.22-23.68,23.2-10.44,38.51.87,66.73,1.97,39.49,1.55,94.57-17.26,112.94-56.47,21.92-46.8-11.38-116.4-55.68-139.39-29.03-15.07-49.5-3.01-77-25.67-27.13-22.36-23.02-46.45-43.44-52.52-26.54-7.89-39.49,31.05-80.16,33.96Z"/><path class="cls-9" d="M1372.17,817.04c5.15-1.98,7.42-6.95,11.95-16.87,4.76-10.42-4.12-12.94-5.99-19.1-1.8-5.93,3.97-14.08-3.5-16.05-9.39-2.48-21.02-3.02-25.19,3.88-4.35,7.18.54,14.91-3.09,22.45-3.23,6.72-5.29,15.58-2.18,21.32,2.3,4.25,18.9,7.87,28,4.37Z"/><path class="cls-3" d="M1352.14,839.48c-10.96.61-18.11,4.94-27.39,2.18-9.44-2.81-13.03-10.67-16.23-15.02-4.12-5.61-12.75-6.69-14.35-13.86-1.57-6.98,6.59-20.41,11.51-30.19,7.13-14.29,2.34-26.65,8.17-36.18,2.12-3.44,6.35-5.72,13.94-6.1,5.31-.26,8.98.17,15.77,2.61,6.72,2.4,12.75,3.98,17.85,2.16,5.53-1.97,6.57-9.26,10.07-12.19,4.09-3.42,9.46-5.09,15.34-2.88,12.38,4.66,13.04,27.54,15.03,40.8.17,1.11.31,2.14.41,3.07.85,7.96-2.53,12.02-2.16,18.88.42,7.76,3.17,15.65-1.61,21.2-1.62,1.88-3.38,2.98-5.15,4.01-3.27,1.92-6.55,2.97-10.34,6.45-6.14,5.63-8.74,13.04-13.66,14.94-6,2.32-8.45-.37-17.21.11Z"/><path class="cls-18" d="M1328.85,862.44c-17.57-.18-25.9,8.19-39.08,3.48-12.94-4.62-14.99-18.32-20.15-24.8-6.92-8.71-23.56-7.86-27.25-18.93-3.25-9.75,11.37-32.09,19.38-47.83,10.64-21.03,5.94-38.03,13.26-49.91,3.36-5.43,10.56-9.71,24.3-8.76,9.2.63,14.88,1.73,26.67,6.94,11.64,5.14,21.76,8.36,29.97,4.72,9.13-4.05,9.17-18.95,14.32-24.94,6.29-7.32,15.44-10.96,25.48-6.87,17.39,7.07,24.26,44.98,26.55,65.55.2,1.83.34,3.51.38,5,.38,13.38-8.76,19.52-9.47,30.8-.84,13.38,3.66,26.37-4.6,34.04-3.11,2.88-6.22,4.27-9.33,5.39-5.75,2.09-11.5,2.67-18.46,8.11-10.76,8.4-14.81,20.76-23.39,22.67-10.32,2.3-13.45-4.49-28.6-4.65Z"/><path class="cls-19" d="M1305.5,884.13c-24.19-.93-33.7,11.46-50.78,4.79-16.46-6.43-16.96-25.97-24.07-34.58-9.73-11.8-34.31-9.05-40.14-24.01-4.9-12.55,16.16-43.78,27.25-65.48,14.15-27.78,9.54-49.41,18.35-63.65,4.6-7.41,14.79-13.38,34.67-11.42,13.08,1.29,20.78,3.28,37.57,11.27,16.56,7.88,30.76,12.75,42.09,7.29,12.73-6.13,11.73-28.62,18.57-37.7,8.45-11.21,21.43-16.86,35.62-10.87,22.41,9.46,35.46,62.42,38.08,90.3.24,2.55.36,4.88.35,6.93-.11,18.8-15.02,27.02-16.77,42.71-2.12,18.97,4.15,37.04-7.58,46.87-4.61,3.86-9.06,5.56-13.51,6.77-8.22,2.26-16.44,2.39-26.59,9.77-15.37,11.18-20.89,28.49-33.12,30.39-14.64,2.28-18.46-8.57-40-9.4Z"/><path class="cls-16" d="M1282.13,905.79c-30.82-1.68-41.52,14.77-62.47,6.1-19.98-8.19-18.94-33.6-27.99-44.37-12.57-14.87-45.04-10.26-53.04-29.08-6.53-15.37,20.94-55.46,35.12-83.13,17.65-34.52,13.14-60.79,23.43-77.38,5.84-9.39,19.02-17.05,45.04-14.08,16.97,1.94,26.68,4.83,48.47,15.6,21.48,10.62,39.75,17.1,54.22,9.85,16.31-8.23,14.29-38.3,22.82-50.45,10.6-15.1,27.43-22.77,45.75-14.86,27.44,11.84,46.59,79.87,49.61,115.05.27,3.27.39,6.25.32,8.86-.62,24.22-21.28,34.51-24.08,54.63-3.41,24.56,4.63,47.69-10.57,59.71-6.11,4.83-11.9,6.85-17.68,8.16-10.7,2.43-21.39,2.11-34.71,11.42-19.98,13.98-26.97,36.24-42.84,38.12-18.95,2.29-23.48-12.64-51.4-14.16Z"/><path class="cls-5" d="M1258.76,927.44c-37.46-2.35-49.32,18.03-74.17,7.41-23.5-10.01-20.9-41.25-31.91-54.15-15.37-17.97-55.76-11.49-65.93-34.16-8.16-18.19,25.73-67.14,42.99-100.77,21.16-41.27,16.74-72.17,28.52-91.11,7.08-11.37,23.27-20.77,55.4-16.74,20.87,2.56,32.58,6.39,59.36,19.93,26.41,13.35,48.75,21.49,66.34,12.42,19.91-10.3,16.85-47.97,27.07-63.21,12.75-18.99,33.45-28.73,55.89-18.85,32.5,14.16,57.81,97.3,61.13,139.8.31,3.99.41,7.61.29,10.78-1.16,29.63-27.59,41.98-31.38,66.55-4.77,30.13,5.12,58.34-13.55,72.54-7.61,5.79-14.74,8.13-21.86,9.54-13.17,2.6-26.32,1.85-42.83,13.08-24.57,16.8-33.06,43.97-52.57,45.85-23.28,2.27-28.5-16.64-62.8-18.92Z"/><path class="cls-10" d="M1235.38,949.07c-44.08-3.16-57.12,21.3-85.86,8.72-27.01-11.82-22.86-48.9-35.83-63.93-18.17-21.07-66.47-12.71-78.83-39.23-9.79-21.01,30.51-78.82,50.86-118.42,24.67-48.01,20.34-83.55,33.6-104.84,8.31-13.35,27.5-24.41,65.77-19.4,24.76,3.24,38.48,7.94,70.26,24.26,31.33,16.09,57.76,25.88,78.46,14.98,23.51-12.38,19.4-57.64,31.32-75.96,14.89-22.88,39.43-34.61,66.03-22.84,41.05,18.16,74.94,134.01,72.92,177.27-1.63,35.05-33.81,49.47-38.69,78.46-6.01,35.72,5.6,68.98-16.53,85.38-25.97,19.24-46.67,5.34-77,25.67-29.21,19.57-39.14,51.69-62.3,53.57-27.6,2.24-33.52-20.76-74.19-23.67Z"/><path class="cls-9" d="M770.1,720.36c-10.23,3.8-27.45-2.51-32.85-16.6-3.13-8.17-2.54-19.62,4.17-25.83,3.3-3.05,7.61-4.42,37.4-.67,29.18,3.67,33.32,6.03,35.4,10.02,3.43,6.59.89,17.02-4.68,20.04-6.27,3.4-11.98-4.99-21.37-2.67-9.54,2.35-8.91,12.31-18.07,15.71Z"/><path class="cls-7" d="M778.81,742.09c-12.1,2.26-20.66,6.13-27.92,2.48-4.5-2.26-4.61-6.62-9.53-10.24-4.02-2.96-7.61-2.66-12.3-5.56-8.43-5.23-11.46-17.53-12.63-22.16-2.89-11.4.88-18.82,1.97-31.57.59-6.88,1.21-9.07,3.92-13.3,3.42-5.32,9.83-9.87,24.64-8.9,8.38.55,14.48,5.53,28.22,8.35,3.78.78,8.97,1.85,14.51,2.11,18.61.9,27.79-4.22,34.55-1.08,4.49,2.09,6.18,6.01,6.75,7.61,1.41,3.93-1.49,7.02-.28,10.72.25.77.65,1.75,1.95,3.11,5.32,5.62,10.74,5.28,12.07,9.28,1.47,4.43-3.54,9.27-9.22,21.66-3.42,7.46-6.69,14.6-12.2,16.89-7.63,3.17-13.61-4.33-23.46-2.63-9.68,1.67-10.32,11.2-21.03,13.21Z"/><path class="cls-14" d="M787.69,763.85c-20.52,2.64-32.59,10.66-42.35,4.84-6.67-3.98-4.64-11.68-12.29-17.75-6.15-4.84-11.49-3.01-19.21-7.33-13.78-7.74-17.08-29-18.07-34.1-3.39-17.34,4.16-24.97,4.38-44.53.13-11.03-.12-12.94,3.23-19.39,4.42-8.49,14.4-16.22,31.63-15.09,11.85.79,17.67,9.92,36.69,14.66,4.29,1.07,11.69,2.93,20.1,3.03,25.38.31,37.48-11.61,47.41-6.87,6.16,2.92,8.22,9.55,8.72,11.1,2.26,6.98-3.86,12.09-1.68,18.41.41,1.18,1.14,2.78,3.67,5.14,10.34,9.64,21.07,7.25,24.04,13.56s-6.15,13.9-16.44,36.8c-5.83,12.98-10.88,25.85-20.3,29.39-8.81,3.31-15.22-3.66-25.55-2.59-9.8,1.02-12.02,9.17-24,10.71Z"/><path class="cls-18" d="M796.62,785.63c-28.97,2.65-44.49,15.17-56.77,7.19-8.82-5.73-4.67-16.75-15.04-25.25-8.27-6.74-15.37-3.37-26.11-9.1-19.13-10.25-22.64-40.48-23.52-46.05-3.68-23.32,7.41-31.12,6.8-57.48-.35-15.17-1.46-16.82,2.55-25.47,5.4-11.68,18.98-22.58,38.62-21.28,15.32,1.02,20.89,14.22,45.15,20.97,4.81,1.34,14.41,3.85,25.69,3.95,32.16.29,47.16-18.99,60.27-12.66,7.83,3.76,10.24,13.09,10.69,14.59,3.01,10.05-6.24,17.16-3.08,26.1.56,1.59,1.62,3.81,5.4,7.16,15.35,13.68,31.38,9.24,36.01,17.83,4.67,8.67-8.82,18.52-23.66,51.94-8.26,18.48-15.04,37.18-28.4,41.89-9.97,3.51-16.82-2.96-27.64-2.54-9.91.39-13.73,7-26.96,8.21Z"/><path class="cls-4" d="M805.55,807.42c-37.43,2.39-56.39,19.67-71.2,9.55-10.96-7.49-4.7-21.82-17.8-32.76-10.39-8.64-19.25-3.72-33.01-10.88-24.48-12.76-28.18-51.97-28.96-58-3.81-29.31,10.65-37.26,9.21-70.44-.84-19.31-2.8-20.69,1.86-31.56,6.38-14.86,23.56-28.94,45.61-27.48,18.79,1.26,24.13,18.44,53.62,27.28,5.33,1.6,17.13,5.15,31.28,4.88,38.93-.76,56.85-26.37,73.13-18.44,9.49,4.6,12.26,16.63,12.66,18.08,3.66,13.15-8.62,22.24-4.47,33.8.72,1.99,2.11,4.84,7.12,9.18,20.37,17.7,41.69,11.24,47.98,22.11,6.26,10.82-11.44,23.16-30.88,67.08-10.67,24-19.18,48.58-36.5,54.39-11.13,3.73-18.42-2.25-29.72-2.5-10.02-.22-15.42,4.78-29.92,5.71Z"/><path class="cls-12" d="M814.48,829.22c-45.88,1.92-68.27,24.17-85.63,11.9-13.09-9.25-4.72-26.89-20.56-40.26-12.51-10.54-23.13-4.07-39.91-12.65-29.83-15.27-33.7-63.45-34.4-69.95-3.81-35.31,13.89-43.41,11.62-83.39-1.33-23.45-4.15-24.57,1.17-37.65,7.35-18.05,28.14-35.3,52.6-33.67,22.26,1.49,27.39,22.61,62.09,33.59,5.85,1.85,19.85,6.27,36.87,5.8,45.72-1.28,66.53-33.75,85.98-24.23,11.15,5.44,14.27,20.17,14.63,21.57,4.19,16.28-11.03,27.32-5.87,41.49.87,2.41,2.6,5.87,8.85,11.21,25.4,21.72,52,13.24,59.96,26.38,7.85,12.96-14.06,27.8-38.1,82.22-13.08,29.52-23.31,60.03-44.6,66.89-12.29,3.95-20.02-1.51-31.81-2.46-10.13-.81-17.1,2.55-32.89,3.21Z"/><path class="cls-16" d="M823.42,851.03c-54.32,1.3-80.16,28.66-100.06,14.26-15.23-11.02-4.75-31.96-23.32-47.77-14.63-12.44-27.01-4.42-46.82-14.42-35.18-17.78-39.22-74.92-39.85-81.9-3.71-41.31,17.03-49.54,14.03-96.35-1.87-27.59-5.5-28.44.48-43.73,8.31-21.24,32.72-41.66,59.59-39.86,25.73,1.72,30.66,26.74,70.55,39.9,6.38,2.1,22.57,7.39,42.46,6.72,52.5-1.79,76.21-41.13,98.84-30.02,12.82,6.28,16.28,23.71,16.6,25.07,4.58,19.44-13.41,32.39-7.26,49.18,1.02,2.82,3.08,6.9,10.58,13.23,30.42,25.74,62.3,15.24,71.93,30.66,9.43,15.11-16.68,32.43-45.32,97.36-15.48,35.04-27.42,71.52-52.7,79.39-13.45,4.18-21.63-.75-33.9-2.41-10.24-1.39-18.77.3-35.85.71Z"/><path class="cls-1" d="M832.36,872.83c-62.75.55-92.04,33.15-114.49,16.61-17.36-12.79-4.78-37.03-26.07-55.28-16.75-14.34-30.89-4.77-53.72-16.2-40.53-20.3-44.74-86.4-45.29-93.85-3.53-47.3,20.29-55.68,16.45-109.3-2.35-31.73-6.88-32.33-.2-49.82,9.24-24.44,37.3-48.02,66.58-46.06,29.2,1.96,33.95,30.85,79.02,46.21,6.9,2.35,25.29,8.56,48.05,7.64,59.28-2.19,85.9-48.5,111.7-35.81,14.48,7.12,18.29,27.25,18.57,28.56,4.82,22.62-15.78,37.47-8.66,56.88,1.18,3.23,3.57,7.93,12.3,15.25,35.45,29.76,72.6,17.24,83.9,34.93,11.02,17.25-19.3,37.07-52.54,112.5-17.89,40.55-31.53,83.04-60.8,91.89-14.61,4.42-23.24.03-35.99-2.37-10.36-1.95-20.43-1.96-38.81-1.79Z"/><path class="cls-17" d="M841.34,894.67c-71.17-.29-103.89,37.61-128.91,18.97-19.47-14.58-4.81-42.11-28.83-62.78-18.87-16.23-34.77-5.12-60.62-17.97-45.88-22.81-50.25-97.87-50.74-105.79-3.27-53.3,23.55-61.82,18.86-122.26-2.82-35.87-8.22-36.2-.89-55.91,10.22-27.62,41.88-54.37,73.57-52.25,32.67,2.19,37.24,34.93,87.49,52.53,7.43,2.6,28.01,9.66,53.64,8.56,66.07-2.75,95.58-55.88,124.56-41.6,16.15,7.95,20.3,30.79,20.54,32.05,4.89,25.83-18.16,42.54-10.06,64.57,1.33,3.63,4.06,8.96,14.03,17.28,40.47,33.77,82.88,19.26,95.87,39.21,12.58,19.41-21.92,41.71-59.75,127.64-20.3,46.07-35.63,94.57-68.9,104.39-15.78,4.65-24.85.82-38.07-2.33-10.49-2.5-22.09-4.22-41.78-4.3Z"/><path class="cls-10" d="M850.25,916.46c48.06.73,54.8,17.77,84.9,9.08,37.27-10.76,54.3-65.29,77-116.88,42.43-96.44,81.16-121.23,66.97-142.78-14.64-22.23-62.34-5.69-107.84-43.49-11.21-9.31-14.26-15.26-15.75-19.3-9.09-24.65,16.22-43.2,11.45-72.26-.2-1.22-4.7-26.75-22.51-35.54-32.15-15.88-64.57,44.08-137.42,47.39-28.5,1.29-51.27-6.63-59.23-9.48-55.41-19.84-59.82-56.41-95.96-58.84-34.1-2.29-69.35,27.65-80.56,58.44-7.98,21.93-1.72,21.99,1.58,62,5.54,67.25-24.23,75.92-21.27,135.21.42,8.4,4.95,92.42,56.18,117.74,28.88,14.27,46.53,1.61,67.52,19.74,26.76,23.11,9.98,53.96,31.59,70.29,27.55,20.81,63.76-22.54,143.34-21.32Z"/><path class="cls-9" d="M229.14,396.04c-10.23,3.8-15.72-4.39-25.44-15.93-6.95-8.24-11.88-23.51-3.24-26.49,13.41-4.63,20.76,6.26,33.84,2.26,28.12-8.59,34.38-2.72,34.56,5.99.17,8.2,10.56,22.23,4.99,25.25-6.27,3.4-21.85-7.76-31.24-5.45-9.54,2.35-4.31,10.97-13.47,14.37Z"/><path class="cls-7" d="M237.01,432.35c-9.72,1.83-8.96-4.42-16.65-4.78s-18.73,4.83-24.39-.93c-4.76-4.84-.93-15.19-4.13-21.8-3.05-6.3-9.56-10.27-11.51-16.84-2.69-9.02.13-18-.16-24.85-.37-8.66-4.24-19.05,3.25-23.5,10.23-6.07,24-1.21,33.63-1.01s17.49-2.75,27.74-5.17c30.85-7.29,49.83.4,47.91,11.81-1.1,6.51-4.55,8.34-4.03,13.48.59,5.8,5.62,10.97,7.51,13.15,5.18,5.96,7.8,10.61,8.37,14.93.64,4.83-3.47,8.49-.83,18.45,2.45,9.26-5.25,18.02-12.19,20.92-8.9,3.72-25.55-6.97-36.78-5.53-10.41,1.34-7.37,9.74-17.74,11.69Z"/><path class="cls-14" d="M246.29,468.67c-17.15,2.37-13.36-10.03-26.74-10.36-12.44-.3-31.9,11.75-40.59,2.72-7.59-7.94,2.07-26.5-2.36-37.18-4.51-10.87-16.25-16.74-18.24-27.96-2.5-14.09,6.3-26.9,6.87-35.7.75-11.62-7.74-27.14,2.55-34.51,13.28-9.51,35.32-2.06,49-3.31,13.68-1.25,25.39-8.43,39.91-11.33,33.37-6.65,64.33,3.46,61.27,17.62-2.54,11.71-9.43,14.03-8.77,22.81.77,10.25,10.52,19.06,13.59,22.1,10.13,10.08,14.35,18.07,14.86,25.18.56,7.82-8.35,13.37-3.58,31.68,3.96,15.23-11.54,30.31-23.42,34.83-11.38,4.34-29.21-6.09-42.31-5.61-11.24.42-10.75,7.44-22.01,9Z"/><path class="cls-18" d="M255.97,504.89c-24.61,2.6-17.75-15.65-36.83-15.93-17.2-.26-45.09,18.69-56.8,6.38-10.44-11.03,5.09-37.82-.6-52.57-5.95-15.45-23.01-23.22-24.97-39.07-2.36-19.16,12.51-35.8,13.91-46.54,1.9-14.58-11.22-35.2,1.84-45.52,16.36-12.92,46.62-2.94,64.36-5.6,18.15-2.72,33.27-14.2,52.08-17.48,35.85-6.24,78.77,6.48,74.62,23.43-4.13,16.87-14.31,19.71-13.51,32.14.94,14.7,15.44,27.13,19.66,31.06,15.15,14.1,20.93,25.53,21.34,35.43.5,10.81-13.18,18.24-6.34,44.91,5.5,21.19-17.8,42.66-34.66,48.75-13.86,5-32.86-5.15-47.85-5.69-12.06-.43-14.13,5.02-26.28,6.31Z"/><path class="cls-4" d="M265.71,539.84c-32.08,2.58-22.15-21.27-46.92-21.51-21.96-.21-58.28,25.62-73,10.04-13.29-14.11,8.11-49.13,1.17-67.96-7.38-20.03-29.79-29.71-31.69-50.19-2.25-24.25,18.72-44.7,20.94-57.39,3.07-17.53-14.69-43.25,1.14-56.52,19.46-16.32,57.92-3.84,79.72-7.9,22.61-4.2,41.14-20.05,64.25-23.63,38.31-5.94,93.19,9.48,87.97,29.24-5.81,22-19.21,25.39-18.25,41.47,1.09,19.16,20.35,35.19,25.74,40.01,20.19,18.08,27.48,32.99,27.83,45.68.41,13.8-18.05,23.12-9.09,58.14,7,27.17-24.05,55.06-45.9,62.66-16.33,5.68-36.51-4.14-53.38-5.77-12.88-1.24-17.5,2.57-30.55,3.62Z"/><path class="cls-12" d="M275.47,574.82c-39.55,2.34-26.54-26.95-57-27.09-26.72-.21-71.47,32.56-89.2,13.7-16.14-17.2,11.14-60.45,2.94-83.34-8.81-24.61-36.58-36.2-38.42-61.3-2.15-29.34,24.94-53.59,27.97-68.24,4.25-20.48-18.15-51.29.43-67.53,22.56-19.71,69.21-4.75,95.09-10.19,27.07-5.7,49-25.96,76.42-29.79,40.77-5.69,107.61,12.47,101.33,35.05-7.54,27.11-24.09,31.07-22.99,50.8,1.26,23.61,25.26,43.25,31.82,48.97,25.25,22.04,34.04,40.45,34.32,55.93.33,16.79-22.92,28-11.84,71.37,8.51,33.14-30.29,67.49-57.13,76.57-18.81,6.36-40.17-3.09-58.92-5.84-13.71-2.01-20.86.1-34.81.93Z"/><path class="cls-16" d="M285.23,609.81c-47.02,1.94-30.94-32.56-67.09-32.67-31.49-.16-84.66,39.49-105.41,17.36-18.99-20.29,14.16-71.76,4.71-98.73-10.23-29.19-43.38-42.69-45.15-72.41-2.05-34.44,31.16-62.48,35.01-79.08,5.43-23.43-21.61-59.34-.27-78.54,25.66-23.1,80.5-5.65,110.45-12.49,31.52-7.19,56.86-31.92,88.59-35.94,43.23-5.48,122.02,15.45,114.68,40.87-9.3,32.21-28.96,36.75-27.73,60.13,1.44,28.06,30.18,51.31,37.89,57.92,30.3,25.98,40.6,47.92,40.8,66.18.25,19.78-27.79,32.88-14.59,84.6,10.01,39.11-36.52,79.94-68.37,90.48-21.28,7.05-43.84-2.01-64.46-5.92-14.55-2.76-24.2-2.37-39.08-1.76Z"/><path class="cls-1" d="M295,644.8c-54.48,1.4-35.34-38.17-77.18-38.25-36.25-.11-97.85,46.43-121.61,21.02-21.84-23.38,17.23-83.09,6.48-114.12-11.61-33.79-50.18-49.18-51.87-83.53-1.95-39.53,37.39-71.37,42.04-89.93,6.62-26.37-25.06-67.37-.98-89.55,28.77-26.49,91.78-6.63,125.81-14.78,35.96-8.76,64.71-37.92,100.76-42.09,45.7-5.28,136.44,18.43,128.04,46.68-11.09,37.3-33.84,42.43-32.47,69.46,1.62,32.52,35.09,59.36,43.97,66.88,35.37,29.92,47.15,55.38,47.29,76.43.17,22.78-32.67,37.76-17.34,97.83,11.52,45.08-42.76,92.39-79.6,104.4-23.75,7.74-47.53-.9-69.99-6-15.4-3.5-27.54-4.85-43.35-4.44Z"/><path class="cls-17" d="M304.77,679.78c-61.94.75-39.73-43.79-87.26-43.82-41.01-.05-111.04,53.36-137.81,24.68-24.69-26.47,20.24-94.4,8.25-129.5-13.05-38.36-57.04-55.67-58.6-94.64-1.92-44.63,43.64-80.25,49.08-100.77,7.84-29.3-28.49-75.39-1.68-100.56,31.91-29.85,103.07-7.5,141.18-17.08,40.42-10.22,72.57-43.96,112.93-48.24,48.17-5.11,150.85,21.4,141.39,52.49-12.9,42.38-38.71,48.11-37.21,78.79,1.8,36.97,40,67.42,50.05,75.83,40.43,33.86,53.71,62.84,53.78,86.67.08,25.77-37.54,42.64-20.1,111.06,13.02,51.06-48.99,104.86-90.84,118.31-26.23,8.43-51.23.24-75.53-6.08-16.26-4.23-30.87-7.34-47.62-7.13Z"/><path class="cls-10" d="M314.54,714.77c44.68,0,85.44,31.08,132.95,15.98,46.86-14.89,116.6-75.19,102.07-132.22-19.56-76.78,22.85-95.53,22.85-124.3,0-26.62-14.76-59.13-60.26-96.92-11.21-9.31-54.15-43.37-56.12-84.79-1.63-34.33,27.24-40.66,41.96-88.12,10.52-33.93-104.1-63.24-154.74-58.3-44.68,4.36-80.23,42.71-125.1,54.4-42.17,10.99-121.54-13.9-156.54,19.37-29.58,28.12,11.39,79.32,2.39,111.57-6.27,22.48-57.87,61.89-56.11,111.62,1.54,43.59,50.83,62.82,65.32,105.75,13.23,39.18-37.56,115.33-10.02,144.89,29.79,31.97,108.25-28.33,154.02-28.33,53.22,0,27.97,49.4,97.35,49.4Z"/><path class="cls-9" d="M1135.74,486.26c-6.5,1.26-19.92,2.38-22.22-2.87-1.38-3.15,2.75-5.15,8.14-17.04,3.88-8.57,3.68-11.81,7.27-13.78,5.49-3.01,12.65.9,13.6,1.42,8.07,4.41,14.21,15.61,10.46,23.45-2.89,6.04-10.41,7.5-17.25,8.83Z"/><path class="cls-6" d="M1135.12,501.08c-7.64,1.93-12.18,5.59-21.66,5.97-8.41.34-18.51-1.55-21.05-7.5-2.31-5.41,4.18-9.22,5.04-18.64.59-6.46-2.33-8.71-2.23-16.21.09-7.2,4.62-15.28,9.83-19.58,3.9-3.22,6.13-3.21,10.11-7.03,3.01-2.9,3.64-5.15,6.43-6.7,3.54-1.96,6.87-1.28,9.88-1.34,14.92-.33,28.52-9.53,33.65-6.74,7.96,4.33,1.27,23.83,11.23,36.66,5.27,6.75,13.28,9.01,13.37,13.37.09,4.08-6.32,4.86-10.03,11.44-3.19,5.65-.94,10.32-3.79,13.64-7.47,8.68-23.47-1.7-40.78,2.66Z"/><path class="cls-11" d="M1135.16,517.01c-12.31,3.28-16.96,10-31.77,10.9-11.91.72-27.59-2.04-31.43-11.09-3.65-8.61,6.95-14.77,6.34-28.56-.48-10.92-7.75-12.71-8.85-24.09-1.17-12.06,7.36-26.25,17.21-33.16,7.27-5.1,11.31-3.96,18.89-10.6,5.6-4.9,6.51-8.59,11.61-11.05,6.5-3.11,12.46-1.17,17.51-.72,24.31,2.14,44.39-19.96,53.71-14.9,12.46,6.77-4.04,42.62,13.76,64.7,9.51,11.76,24.72,14.42,24.41,21.28-.29,6.43-13.29,6.23-20.59,17.68-6.27,9.85-1.28,17.88-6.5,23.1-11.61,11.62-36.53-10.89-64.31-3.5Z"/><path class="cls-13" d="M1136.91,532.95c-16.98,4.63-21.73,14.4-41.88,15.83-15.41,1.09-36.67-2.52-41.81-14.67-4.99-11.82,9.61-20.27,7.64-38.49-1.66-15.34-13.21-16.69-15.47-31.96-2.49-16.88,10.09-37.23,24.59-46.75,10.64-6.99,16.47-4.72,27.67-14.17,8.18-6.91,9.38-12.04,16.79-15.39,9.46-4.27,18.06-1.07,25.14-.11,33.73,4.57,60.26-30.39,73.77-23.05,16.96,9.21-9.34,61.42,16.3,92.74,13.74,16.76,36.17,19.84,35.46,29.18-.67,8.77-20.27,7.59-31.15,23.93-9.35,14.04-1.59,25.48-9.2,32.57-15.71,14.63-49.59-20.08-87.84-9.66Z"/><path class="cls-15" d="M1138.67,548.89c-21.65,5.98-26.51,18.79-52,20.76-18.91,1.46-45.75-3.01-52.19-18.26-6.34-15.02,12.25-25.73,8.94-48.41-2.88-19.74-18.69-20.65-22.09-39.84-3.84-21.7,12.82-48.23,31.97-60.33,13.99-8.89,21.62-5.51,36.45-17.73,10.75-8.93,12.24-15.48,21.97-19.74,12.42-5.42,23.66-.97,32.78.51,43.15,7,76.13-40.81,93.83-31.21,21.46,11.65-14.64,80.21,18.83,120.78,17.98,21.77,47.61,25.25,46.5,37.09-1.04,11.11-27.24,8.96-41.71,30.17-12.44,18.24-1.89,33.11-11.9,42.04-19.81,17.66-62.65-29.28-111.37-15.82Z"/><path class="cls-2" d="M1140.44,564.63c-26.32,7.33-31.3,23.14-62.11,25.68-22.42,1.8-54.83-3.49-62.56-21.85-7.68-18.23,14.88-31.18,10.24-58.34-4.13-24.13-24.17-24.61-28.71-47.72-5.2-26.51,15.56-59.2,39.34-73.92,17.36-10.78,26.79-6.26,45.23-21.3,13.34-10.93,15.11-18.93,27.15-24.08,15.38-6.58,29.26-.89,40.41,1.13,52.59,9.33,92-51.24,113.89-39.37,25.96,14.09-19.95,99.01,21.36,148.82,22.22,26.78,59.06,30.66,57.55,45-1.42,13.45-34.22,10.32-52.27,36.42-15.52,22.44-2.18,40.74-14.6,51.5-23.91,20.71-75.7-38.47-134.91-21.98Z"/><path class="cls-8" d="M1142.21,579.77c-30.98,8.68-36.08,27.54-72.22,30.61-25.92,2.17-63.91-3.98-72.94-25.44-9.02-21.43,17.51-36.61,11.54-68.26-5.38-28.5-29.66-28.56-35.33-55.6-6.57-31.32,18.3-70.18,46.72-87.5,20.74-12.66,31.97-7.01,54.01-24.87,15.93-12.93,17.97-22.37,32.33-28.43,18.35-7.73,34.86-.78,48.04,1.75,62.01,11.79,107.87-61.67,133.94-47.52,30.46,16.53-25.25,117.8,23.9,176.86,26.45,31.78,70.5,36.08,68.59,52.9-1.79,15.79-41.2,11.69-62.83,42.67-18.6,26.63-2.47,48.38-17.31,60.97-28,23.77-88.76-47.67-158.44-28.14Z"/><path class="cls-10" d="M1143.98,594.9c80.15-22.56,149.87,61.13,181.97,34.3,17.25-14.42-1.67-39.61,20.01-70.43,25.22-35.86,71.22-30.78,73.39-48.91,2.31-19.32-48.95-24.02-79.63-60.81-56.98-68.31,8.53-185.93-26.43-204.9-30.26-16.42-82.57,69.94-154,55.68-15.22-3.04-34.37-11.26-55.68-2.37-16.68,6.96-18.99,17.84-37.51,32.77-25.64,20.67-38.68,13.89-62.79,28.43-33.05,19.94-62.03,64.97-54.1,101.09,6.81,30.97,35.32,30.6,41.95,63.48,7.3,36.14-23.2,53.55-12.83,78.19,10.33,24.56,53.9,31.58,83.32,29.02,41.48-3.6,46.68-25.5,82.33-35.54Z"/><path class="cls-9" d="M276.9,967.05c8.4-2.36,1.68-14.05,6.22-23.97,4.76-10.42,11.26-7.67,13.95-14.35,2.32-5.75,5.32-21.64-2.15-23.61-9.39-2.48-27.96.09-33.24,9.08-4.9,8.35,1.45,14.09-.73,25.61-1.39,7.33-8.45,12.7-5.3,20.61,2.57,6.45,11.85,9.27,21.24,6.64Z"/><path class="cls-3" d="M276.29,992.36c-15.03-.12-34.05,1.24-41.45-7.53-6.13-7.27,2.51-19.43,2.26-25.99-.32-8.47-8.91-14.42-9.12-24.01-.24-10.66,5.41-18.5,6.09-26.46.73-8.52-1.79-14.1,1.66-21.26,2.79-5.8,14.6-14.09,23.68-13.29,6.22.55,6.24,2.6,11.5,4.26,6.93,2.18,12.26.97,17.91,1.34,8.11.54,15.29,3,22.77,2.9,6.44-.08,12.58-2.22,17.63-.33,5.8,1.99,6.26,10.42,10.08,18.28,6.68,13.74,14.47,16.89,16.5,24.24,2.67,9.7-7.07,21.88-15.67,29.39-4.67,4.08-10.22,5.22-15.93,7.88-3.37,1.57-6.67,3.38-9.69,6.51-6.95,7.21-10.96,18.63-16.35,22.59-5.69,4.18-11.69,1.55-21.87,1.48Z"/><path class="cls-18" d="M277.01,1016.61c-20.6-2.09-49.81,2.92-61.65-8.42-11.03-10.57,5.53-31.89,3.77-41.88-2.39-13.56-21.43-22.14-22.8-37.52-1.35-15.19,11.03-26.42,12.96-38.22,2.19-13.4-2.81-21.23,1.82-31.61,3.99-8.94,24.84-21.72,39.7-20.22,11.04,1.11,9.46,6.51,18.35,10.27,11.78,5.03,20.28,3.04,29.42,4.07,13.39,1.52,24.93,6.54,37.29,6.25,10.56-.25,20.69-4.83,28.98-1.52,8.51,3.18,8.29,16.78,15.47,28.68,13.2,21.88,29.96,21.43,35.53,32.74,7.13,14.47-8.1,39-21.34,50.27-7.99,6.81-17.75,7.27-27.91,9.93-6.06,1.59-12.17,3.72-17.99,8.4-13.14,10.54-21.53,29.48-32.42,33.93-11.17,4.56-22.65-3.46-39.18-5.14Z"/><path class="cls-19" d="M277.65,1040.57c-26.21-3.94-65.62,4.67-81.86-9.31-15.99-13.77,8.52-44.34,5.28-57.77-4.5-18.63-33.88-29.88-36.47-51.02-2.42-19.74,16.67-34.33,19.83-49.98,3.68-18.27-3.85-28.36,1.98-41.96,5.18-12.09,35.09-29.97,55.73-27.15,15.83,2.16,12.68,10.4,25.21,16.29,16.64,7.86,28.29,5.13,40.93,6.8,18.67,2.52,34.57,10.08,51.81,9.59,14.67-.42,28.8-7.44,40.33-2.7,11.22,4.36,10.34,23.11,20.87,39.08,19.77,29.98,45.42,26,54.56,41.24,11.56,19.28-9.13,56.1-27,71.14-11.32,9.53-25.28,9.3-39.89,11.98-8.76,1.61-17.67,4.08-26.3,10.28-19.32,13.89-32.11,40.38-48.49,45.27-16.68,4.98-33.64-8.32-56.5-11.76Z"/><path class="cls-16" d="M278.27,1064.46c-31.86-5.74-81.43,6.46-102.07-10.2-20.97-16.94,11.51-56.77,6.79-73.65-6.63-23.69-46.3-37.62-50.14-64.53-3.47-24.29,22.32-42.23,26.69-61.75,5.19-23.14-4.91-35.5,2.14-52.31,6.34-15.24,45.33-38.22,71.75-34.09,20.6,3.22,15.9,14.29,32.06,22.3,21.49,10.68,36.31,7.2,52.44,9.53,23.95,3.5,44.2,13.62,66.32,12.93,18.79-.58,36.91-10.04,51.68-3.89,13.92,5.54,12.39,29.44,26.26,49.49,26.34,38.07,60.89,30.59,73.59,49.74,15.99,24.11-10.19,73.18-32.67,92.02-14.67,12.23-32.82,11.3-51.87,14.03-11.45,1.61-23.16,4.45-34.6,12.16-25.47,17.3-42.7,51.28-64.57,56.6-22.19,5.4-44.66-13.12-73.81-18.37Z"/><path class="cls-5" d="M278.89,1088.31c-37.52-7.54-97.25,8.27-122.28-11.1-25.96-20.08,14.5-69.21,8.3-89.54-8.76-28.74-58.71-45.37-63.81-78.03-4.51-28.85,28-50.12,33.56-73.51,6.74-27.99-5.94-42.63,2.29-62.66,7.53-18.38,55.56-46.46,87.78-41.02,25.38,4.29,19.12,18.18,38.91,28.31,26.35,13.5,44.33,9.27,63.95,12.26,29.23,4.47,53.84,17.16,80.84,16.27,22.91-.75,45.02-12.65,63.03-5.08,16.63,6.72,14.48,35.73,31.66,59.89,32.99,46.1,76.31,35.21,92.62,58.25,20.38,28.97-11.21,90.3-38.34,112.89-17.99,14.96-40.34,13.34-63.86,16.08-14.14,1.63-28.67,4.8-42.9,14.04-31.67,20.64-53.29,62.23-80.64,67.94-27.7,5.88-55.7-17.87-91.12-24.99Z"/><path class="cls-10" d="M279.49,1112.17c-43.2-9.32-113.06,10.08-142.49-11.99-30.95-23.21,17.48-81.63,9.81-105.43-10.9-33.78-71.11-53.13-77.48-91.54-5.55-33.42,33.62-58.03,40.43-85.27,8.21-32.86-6.97-49.76,2.45-73.01,8.72-21.52,65.8-54.7,103.8-47.95,30.15,5.36,22.34,22.07,45.77,34.33,31.21,16.33,52.35,11.33,75.47,14.98,34.51,5.45,63.48,20.71,95.35,19.62,27.02-.92,53.13-15.26,74.38-6.27,19.34,7.9,16.49,42.08,37.05,70.29,39.5,54.22,91.81,39.78,111.66,66.75,24.85,33.77-12.24,107.41-44,133.77-34.15,28.33-81.71,5.35-127.05,34.05-37.87,23.97-63.9,73.09-96.72,79.28-33.24,6.27-66.75-22.61-108.43-31.6Z"/></svg>