<?xml version="1.0" encoding="UTF-8"?><svg id="logos" xmlns="http://www.w3.org/2000/svg" viewBox="0 0 1123 182"><defs><style>.cls-1{fill:#f5f7fa;}.cls-1,.cls-2{stroke-width:0px;}.cls-2{fill:#f2460d;}</style></defs><path class="cls-2" d="M1032.23,37h-72V1h54c9.94,0,18,8.06,18,18v18Z"/><path class="cls-2" d="M1086.23,73h-54v-36h36c9.94,0,18,8.06,18,18v18Z"/><path class="cls-2" d="M1086.23,109v-36h18c9.94,0,18,8.06,18,18s-8.06,18-18,18h-18Z"/><path class="cls-2" d="M1032.23,145h-72v36h54c9.94,0,18-8.06,18-18v-18Z"/><path class="cls-2" d="M1086.23,109h-54v36h36c9.94,0,18-8.06,18-18v-18Z"/><rect class="cls-2" x="960.23" y="73" width="72" height="36"/><polygon class="cls-1" points="94.49 37 .77 37 .77 49.93 39.74 49.93 39.74 145 55.02 145 55.02 49.93 94.49 49.93 94.49 37"/><path class="cls-1" d="M106.25,81.01v-11.59h-14.28v75.58h14.78v-33.09c.17-23.85,3.36-29.56,20.32-29.56h8.4v-12.93h-8.9c-10.75,0-16.8,5.54-20.32,11.59Z"/><path class="cls-1" d="M213.91,127.7v-31.41c0-16.46-9.24-28.55-31.91-28.55-34.94,0-35.1,23.18-35.1,23.18h16.29s-.17-11.42,18.64-11.42c11.25,0,17.3,6.05,17.3,17.47-9.74,1.18-56.1,3.02-56.1,28.55,0,12.09,9.07,21.16,27.21,21.16,13.44,0,23.35-4.87,29.39-12.77,1.51,8.4,7.05,11.09,18.14,11.09h5.71v-12.93h-5.37c-3.36,0-4.2-1.01-4.2-4.37ZM199.12,115.77c0,11.42-15.62,18.98-27.38,18.98-7.22,0-13.1-2.86-13.1-9.24,0-14.11,29.23-16.12,40.48-17.13v7.39Z"/><path class="cls-1" d="M296.2,78.82c-6.72-7.05-15.79-11.09-25.53-11.09-25.87,0-39.47,16.63-39.47,39.98s14.61,39.97,40.98,38.97c9.41-.34,18.31-4.7,24.52-11.93v10.25h14.28V37h-14.78v41.82ZM272.35,134.92c-15.62,0-25.87-12.26-25.87-27.21,0-16.63,9.74-28.22,25.87-28.22s24.35,11.76,24.35,27.71c0,14.78-8.4,27.71-24.35,27.71Z"/><path class="cls-1" d="M364.22,67.74c-25.7,0-38.97,16.8-38.97,39.64,0,24.02,14.95,39.3,38.97,39.3,31.75,0,35.1-25.19,35.1-25.19h-15.62s-3.02,13.44-19.31,13.44c-14.78,0-23.01-9.07-23.85-22.34h59.96c3.19-30.24-13.94-44.85-36.28-44.85ZM385.72,100.49h-45.18c1.01-11.08,9.24-20.99,23.85-20.99,12.09,0,22.17,8.73,21.33,20.99Z"/><polygon class="cls-1" points="447.52 128.71 423 69.42 407.04 69.42 439.46 145 455.58 145 488.17 69.42 472.21 69.42 447.52 128.71"/><path class="cls-1" d="M531.67,67.74c-25.7,0-38.97,16.8-38.97,39.64,0,24.02,14.95,39.3,38.97,39.3,31.75,0,35.1-25.19,35.1-25.19h-15.62s-3.02,13.44-19.31,13.44c-14.78,0-23.01-9.07-23.85-22.34h59.96c3.19-30.24-13.94-44.85-36.28-44.85ZM553.17,100.49h-45.18c1.01-11.08,9.24-20.99,23.85-20.99,12.09,0,22.17,8.73,21.33,20.99Z"/><path class="cls-1" d="M596.83,81.01v-11.59h-14.28v75.58h14.78v-33.09c.17-23.85,3.36-29.56,20.32-29.56h8.4v-12.93h-8.9c-10.75,0-16.8,5.54-20.32,11.59Z"/><path class="cls-1" d="M650.74,35.32c-5.71,0-10.41,4.7-10.41,10.58s4.7,10.42,10.41,10.42,10.58-4.7,10.58-10.42-4.7-10.58-10.58-10.58Z"/><rect class="cls-1" x="643.52" y="69.42" width="14.78" height="75.58"/><path class="cls-1" d="M685.17,54.3v15.12h-9.57v12.93h9.57v62.65h14.78v-62.65h19.82v-12.93h-19.82v-15.12c0-3.36.84-4.37,4.2-4.37h15.62v-12.93h-15.62c-13.44,0-18.98,3.86-18.98,17.3Z"/><path class="cls-1" d="M765.29,125.68l-21.67-56.27h-15.96l30.74,73.57-6.21,15.45c-1.85,3.86-1.68,4.37-6.21,4.37h-12.09v12.93h12.09c14.44,0,16.63-5.88,21.67-17.3l36.28-89.02h-15.96l-22.68,56.27Z"/><path class="cls-1" d="M873.45,37v41.82c-6.72-7.05-15.79-11.09-25.53-11.09-25.87,0-39.47,16.63-39.47,39.98s14.61,39.97,40.98,38.97c9.41-.34,18.31-4.7,24.52-11.93v10.25h14.28V37h-14.78ZM849.6,134.92c-15.62,0-25.87-12.26-25.87-27.21,0-16.63,9.74-28.22,25.87-28.22s24.35,11.76,24.35,27.71c0,14.78-8.4,27.71-24.35,27.71Z"/></svg>